<svg width="250" height="47" viewBox="0 0 250 47" fill="none" xmlns="http://www.w3.org/2000/svg">
<rect width="250" height="47" fill="#1E1E1E"/>
<g clip-path="url(#clip0_0_1)">
<rect width="250" height="47" fill="black"/>
<g clip-path="url(#clip1_0_1)">
<path d="M273.9 -142.8H-24.9V190.8H273.9V-142.8Z" fill="white"/>
<path d="M273.9 -142.8H-24.9V190.8H273.9V-142.8Z" fill="white"/>
<path d="M273.9 -142.8H-24.9V190.8H273.9V-142.8Z" fill="black"/>
<path d="M14.613 11.0412C11.9829 11.0412 10.463 14.5335 9.93647 15.9033L6.63462 14.1079C7.42312 12.185 9.79122 7.48509 14.613 7.48509C22.3579 7.48509 23.2346 12.9669 23.2346 16.132C23.2346 21.776 15.0799 27.976 15.0513 28.0426C15.0513 28.0426 14.1747 29.5108 15.4612 29.5108H23.673V33.2609H6.34153V32.9366C8.06637 31.3033 18.763 21.4169 18.763 16.132C18.763 15.1851 18.4984 11.0412 14.613 11.0412ZM14.613 12.6744C17.1263 12.6744 17.3001 15.1533 17.3001 16.132C17.3001 20.3397 5.20287 31.8593 5.14322 31.923C4.96944 32.0881 4.88125 32.3169 4.88125 32.5427V34.0775C4.88125 34.4366 5.14322 34.8942 5.61009 34.8942H24.4018C24.6949 34.8942 25.1332 34.5988 25.1332 34.0775V28.6942C25.1332 28.3669 24.8402 27.8775 24.4018 27.8775H17.6529C20.1066 25.6912 24.6949 21.1245 24.6949 16.132C24.6949 12.5441 23.3799 5.85474 14.613 5.85474C7.48278 5.85474 5.0265 14.2382 5.0265 14.2729C4.90978 14.5973 5.05503 15.0548 5.40778 15.2517L9.99612 17.7305C10.5512 18.023 10.8728 17.6002 10.9895 17.273C11.0751 17.0442 12.7118 12.6744 14.613 12.6744Z" fill="white"/>
<path d="M29.9813 7.97447H36.2349C42.4599 7.97447 47.6629 13.2594 47.6629 20.6032C47.6629 28.0078 42.491 33.2609 36.2349 33.2609H29.9813V7.97447ZM29.2525 6.34412C28.9309 6.34412 28.521 6.66845 28.521 7.15785V34.0775C28.521 34.4366 28.783 34.8941 29.2525 34.8941H36.2349C43.2198 34.8941 49.1232 28.9548 49.1232 20.6032C49.1232 12.3153 43.1913 6.34412 36.2349 6.34412H29.2525ZM34.746 29.4123H35.5942C40.0632 29.4123 43.1342 25.5609 43.1913 20.6669C43.1913 15.7411 40.0944 11.8259 35.5942 11.8259H34.746C34.2792 11.8259 34.0146 12.3153 34.0146 12.6397V28.5957C34.0146 29.1169 34.4244 29.4123 34.746 29.4123ZM35.4775 27.7791V13.4563H35.5942C39.2462 13.4563 41.731 16.5548 41.731 20.6351C41.6999 24.7471 39.2177 27.7791 35.5942 27.7791H35.4775Z" fill="white"/>
<path d="M64.7157 31.7446C68.9668 31.7446 72.3698 29.2976 73.7315 25.2608L70.0354 23.7579C69.1899 26.2338 67.1719 27.6759 64.7157 27.6759C61.4294 27.6759 58.9082 25.0987 58.9082 20.7954C58.9082 16.4922 61.4294 13.9294 64.7157 13.9294C67.1719 13.9294 69.1899 15.3571 70.0354 17.833L73.7315 16.3301C72.3698 12.2933 68.9668 9.86078 64.7157 9.86078C59.108 9.86078 54.9632 14.1061 54.9632 20.7954C54.9632 27.4848 59.108 31.7446 64.7157 31.7446Z" fill="#FF00FF"/>
<path d="M81.2473 31.4493H85.2054V22.6951H93.2694V31.4493H97.23V10.1562H93.2694V18.8495H85.2054V10.1562H81.2473V31.4493Z" fill="#FF00FF"/>
<path d="M119.197 31.4493H123.248L116.227 10.1562H111.384L104.363 31.4493H108.414L109.799 27.0592H117.812L119.197 31.4493ZM110.961 23.3583L113.812 14.3262L116.65 23.3583H110.961Z" fill="#FF00FF"/>
<path d="M152.238 31.4493L150.666 10.1562H145.02L140.901 23.5205L136.836 10.1562H131.187L129.589 31.4493H133.55L134.816 15.4034L139.648 31.4493H142.208L147.037 15.4034L148.293 31.4493H152.238Z" fill="#FF00FF"/>
<path d="M171.683 11.1292C170.64 10.495 169.229 10.1562 166.921 10.1562H160.652V31.4493H164.61V23.8158H166.921C169.255 23.8158 170.669 23.4046 171.712 22.6083C173.478 21.3862 174.246 19.1738 174.246 16.6255C174.246 14.0916 173.465 12.1891 171.683 11.1292ZM169.44 19.3823C168.794 19.9991 167.818 20.1179 166.366 20.1179H164.61V13.8542H166.366C167.777 13.8542 168.729 13.9295 169.401 14.5028C169.917 14.9604 170.259 15.7133 170.259 16.9064C170.259 18.1284 169.943 18.8958 169.44 19.3823Z" fill="#FF00FF"/>
<path d="M181.868 31.4493H185.826V10.1562H181.868V31.4493Z" fill="#FF00FF"/>
<path d="M203.465 31.7446C209.063 31.7446 213.205 27.4703 213.205 20.7954C213.205 14.1061 209.063 9.86078 203.465 9.86078C197.858 9.86078 193.713 14.1061 193.713 20.7954C193.713 27.4703 197.858 31.7446 203.465 31.7446ZM203.465 27.6904C200.179 27.6904 197.658 25.1131 197.658 20.7954C197.658 16.4922 200.179 13.9294 203.465 13.9294C206.752 13.9294 209.273 16.4922 209.273 20.7954C209.273 25.1131 206.752 27.6904 203.465 27.6904Z" fill="#FF00FF"/>
<path d="M234.145 10.1562V25.2898L225.645 10.1562H221.119V31.4493H225.064V16.2288L233.512 31.4493H238.09V10.1562H234.145Z" fill="#FF00FF"/>
<path d="M68.0079 32.5932C72.2591 32.5932 75.6621 30.1462 77.0238 26.1094L73.3277 24.6065C72.4821 27.0824 70.4642 28.5245 68.0079 28.5245C64.7216 28.5245 62.2005 25.9472 62.2005 21.644C62.2005 17.3408 64.7216 14.778 68.0079 14.778C70.4642 14.778 72.4821 16.2056 73.3277 18.6816L77.0238 17.1786C75.6621 13.1419 72.2591 10.7094 68.0079 10.7094C62.4002 10.7094 58.2554 14.9546 58.2554 21.644C58.2554 28.3334 62.4002 32.5932 68.0079 32.5932Z" fill="#00FFFF"/>
<path d="M84.5396 32.2978H88.4976V23.5437H96.5616V32.2978H100.522V11.0048H96.5616V19.6981H88.4976V11.0048H84.5396V32.2978Z" fill="#00FFFF"/>
<path d="M122.489 32.2978H126.54L119.519 11.0048H114.677L107.655 32.2978H111.707L113.092 27.9077H121.104L122.489 32.2978ZM114.254 24.2069L117.104 15.1748L119.942 24.2069H114.254Z" fill="#00FFFF"/>
<path d="M155.53 32.2978L153.958 11.0048H148.312L144.193 24.369L140.128 11.0048H134.479L132.882 32.2978H136.842L138.108 16.252L142.94 32.2978H145.5L150.33 16.252L151.585 32.2978H155.53Z" fill="#00FFFF"/>
<path d="M174.975 11.9778C173.933 11.3436 172.522 11.0048 170.213 11.0048H163.944V32.2978H167.902V24.6644H170.213C172.548 24.6644 173.961 24.2532 175.004 23.4568C176.77 22.2348 177.538 20.0224 177.538 17.4741C177.538 14.9402 176.757 13.0376 174.975 11.9778ZM172.732 20.2309C172.086 20.8477 171.111 20.9664 169.658 20.9664H167.902V14.7027H169.658C171.069 14.7027 172.021 14.778 172.693 15.3514C173.209 15.8089 173.551 16.5619 173.551 17.7549C173.551 18.977 173.235 19.7444 172.732 20.2309Z" fill="#00FFFF"/>
<path d="M185.16 32.2978H189.118V11.0048H185.16V32.2978Z" fill="#00FFFF"/>
<path d="M206.758 32.5932C212.355 32.5932 216.497 28.3189 216.497 21.644C216.497 14.9546 212.355 10.7094 206.758 10.7094C201.15 10.7094 197.005 14.9546 197.005 21.644C197.005 28.3189 201.15 32.5932 206.758 32.5932ZM206.758 28.539C203.471 28.539 200.95 25.9617 200.95 21.644C200.95 17.3408 203.471 14.778 206.758 14.778C210.044 14.778 212.565 17.3408 212.565 21.644C212.565 25.9617 210.044 28.539 206.758 28.539Z" fill="#00FFFF"/>
<path d="M237.437 11.0048V26.1384L228.937 11.0048H224.411V32.2978H228.356V17.0773L236.804 32.2978H241.382V11.0048H237.437Z" fill="#00FFFF"/>
<path d="M66.3618 32.1689C70.6129 32.1689 74.0159 29.7219 75.3777 25.6851L71.6816 24.1822C70.836 26.6581 68.8181 28.1003 66.3618 28.1003C63.0755 28.1003 60.5544 25.523 60.5544 21.2198C60.5544 16.9166 63.0755 14.3537 66.3618 14.3537C68.8181 14.3537 70.836 15.7814 71.6816 18.2573L75.3777 16.7544C74.0159 12.7176 70.6129 10.2851 66.3618 10.2851C60.7541 10.2851 56.6093 14.5304 56.6093 21.2198C56.6093 27.9091 60.7541 32.1689 66.3618 32.1689Z" fill="white"/>
<path d="M82.8934 31.8735H86.8515V23.1194H94.9155V31.8735H98.8761V10.5804H94.9155V19.2737H86.8515V10.5804H82.8934V31.8735Z" fill="white"/>
<path d="M120.843 31.8735H124.894L117.873 10.5804H113.03L106.009 31.8735H110.061L111.446 27.4834H119.458L120.843 31.8735ZM112.608 23.7825L115.458 14.7504L118.296 23.7825H112.608Z" fill="white"/>
<path d="M153.884 31.8735L152.312 10.5804H146.666L142.547 23.9447L138.482 10.5804H132.833L131.235 31.8735H135.196L136.462 15.8277L141.294 31.8735H143.854L148.684 15.8277L149.939 31.8735H153.884Z" fill="white"/>
<path d="M173.329 11.5534C172.287 10.9193 170.876 10.5804 168.567 10.5804H162.298V31.8735H166.256V24.2401H168.567C170.901 24.2401 172.315 23.8289 173.358 23.0325C175.124 21.8105 175.892 19.5981 175.892 17.0497C175.892 14.5159 175.111 12.6133 173.329 11.5534ZM171.086 19.8066C170.44 20.4234 169.465 20.5421 168.012 20.5421H166.256V14.2784H168.012C169.423 14.2784 170.375 14.3537 171.047 14.9271C171.563 15.3846 171.905 16.1375 171.905 17.3306C171.905 18.5527 171.589 19.3201 171.086 19.8066Z" fill="white"/>
<path d="M183.514 31.8735H187.472V10.5804H183.514V31.8735Z" fill="white"/>
<path d="M205.111 32.1689C210.709 32.1689 214.851 27.8947 214.851 21.2198C214.851 14.5304 210.709 10.2851 205.111 10.2851C199.504 10.2851 195.359 14.5304 195.359 21.2198C195.359 27.8947 199.504 32.1689 205.111 32.1689ZM205.111 28.1147C201.825 28.1147 199.304 25.5374 199.304 21.2198C199.304 16.9166 201.825 14.3537 205.111 14.3537C208.398 14.3537 210.919 16.9166 210.919 21.2198C210.919 25.5374 208.398 28.1147 205.111 28.1147Z" fill="white"/>
<path d="M235.791 10.5804V25.7141L227.291 10.5804H222.765V31.8735H226.71V16.653L235.158 31.8735H239.736V10.5804H235.791Z" fill="white"/>
</g>
</g>
<defs>
<clipPath id="clip0_0_1">
<rect width="250" height="47" fill="white"/>
</clipPath>
<clipPath id="clip1_0_1">
<rect width="249" height="278" fill="white" transform="translate(0 -115)"/>
</clipPath>
</defs>
</svg>
