<svg xmlns="http://www.w3.org/2000/svg" xmlns:xlink="http://www.w3.org/1999/xlink" width="1600" zoomAndPan="magnify" viewBox="0 0 1200 809.999993" height="1080" preserveAspectRatio="xMidYMid meet" version="1.0"><defs><filter x="0%" y="0%" width="100%" height="100%" id="55e26fb977"><feColorMatrix values="0 0 0 0 1 0 0 0 0 1 0 0 0 0 1 0 0 0 1 0" color-interpolation-filters="sRGB"/></filter><clipPath id="3cabb189ff"><path d="M 220 167.453125 L 1023 167.453125 L 1023 620.453125 L 220 620.453125 Z M 220 167.453125 " clip-rule="nonzero"/></clipPath><mask id="43a9654a78"><g filter="url(#55e26fb977)"><rect x="-120" width="1440" fill="#000000" y="-80.999999" height="971.999992" fill-opacity="0.4"/></g></mask><clipPath id="faac5f89f4"><path d="M 1 0.453125 L 802.640625 0.453125 L 802.640625 453 L 1 453 Z M 1 0.453125 " clip-rule="nonzero"/></clipPath><clipPath id="f6cc46c94d"><rect x="0" width="803" y="0" height="454"/></clipPath><clipPath id="bb0459844a"><path d="M 212.113281 318 L 249 318 L 249 473 L 212.113281 473 Z M 212.113281 318 " clip-rule="nonzero"/></clipPath><clipPath id="e8ea04292c"><path d="M 994 318 L 1031.113281 318 L 1031.113281 473 L 994 473 Z M 994 318 " clip-rule="nonzero"/></clipPath></defs><g clip-path="url(#3cabb189ff)"><g mask="url(#43a9654a78)"><g transform="matrix(1, 0, 0, 1, 220, 167)"><g clip-path="url(#f6cc46c94d)"><g clip-path="url(#faac5f89f4)"><path fill="#191433" d="M 48.296875 0.796875 L 754.925781 0.796875 L 802.085938 47.835938 L 802.085938 405.898438 L 754.925781 452.941406 L 48.296875 452.941406 L 1.136719 405.898438 L 1.136719 47.835938 Z M 48.296875 0.796875 " fill-opacity="1" fill-rule="nonzero"/></g></g></g></g></g><g clip-path="url(#bb0459844a)"><path fill="#191433" d="M 212.113281 318.503906 L 227.160156 318.503906 L 248.25 339.617188 L 248.25 451.140625 L 227.160156 472.238281 L 212.113281 472.238281 Z M 212.113281 318.503906 " fill-opacity="1" fill-rule="nonzero"/></g><g clip-path="url(#e8ea04292c)"><path fill="#191433" d="M 1031.113281 318.503906 L 1016.0625 318.503906 L 994.972656 339.617188 L 994.972656 451.140625 L 1016.0625 472.238281 L 1031.113281 472.238281 Z M 1031.113281 318.503906 " fill-opacity="1" fill-rule="nonzero"/></g></svg>